<svg width="111" height="62" viewBox="0 0 111 62" fill="none" xmlns="http://www.w3.org/2000/svg">
<path d="M46.2948 7.24057C46.2948 5.61793 45.1421 4.9241 43.7544 4.9241C42.0759 4.9241 40.1734 6.08793 40.1734 7.82248V11.3028H39.9384C38.2599 11.3028 37.1631 13.1604 37.1631 14.839C37.1631 16.1148 37.801 17.2114 39.2446 17.2114H40.1734V29.04C40.1734 33.9638 42.6578 36.1684 46.8766 36.1684C49.7638 36.1684 50.9836 34.4898 50.9836 32.7442C50.9836 31.4684 50.4017 30.3045 48.7903 30.3045H47.6823C46.6417 30.3045 46.2948 29.8458 46.2948 28.8497V17.2114H48.7791C50.7485 17.2114 52.0132 15.1859 52.0132 13.4961C52.0132 12.3323 51.3753 11.2916 49.9317 11.2916H48.891C48.1412 11.2916 47.0444 11.4035 46.2948 11.4706V7.24057ZM55.7732 33.975C55.7732 35.5418 56.9819 36.1795 58.3134 36.1795C60.1041 36.1795 61.8945 35.0158 61.8945 33.2813V16.2267C61.8945 12.6904 60.16 11.3028 56.7468 11.3028H55.7621C53.9714 11.3028 52.9308 13.1604 52.9308 14.7831C52.9308 16.2378 53.5687 17.1555 55.1242 17.1555H55.471C55.7061 17.1555 55.7621 17.2114 55.7621 17.4464V33.975H55.7732ZM54.3855 4.34219C54.3855 6.43485 56.2881 8.34844 58.3694 8.34844C60.6187 8.34844 62.3534 6.43485 62.3534 4.34219C62.3534 2.08168 60.6187 0.335938 58.3694 0.335938C56.2881 0.347128 54.3855 2.08168 54.3855 4.34219ZM71.664 33.6841C73.6895 35.5977 75.3681 36.1795 77.2145 36.1795C83.9177 36.1795 86.6371 29.801 86.6371 23.5342C86.6371 17.1555 83.6939 10.9559 77.1585 10.9559C75.0211 10.9559 73.3985 11.6497 71.664 12.9814V12.7464C71.664 11.5266 70.5112 10.9447 69.1237 10.9447C67.3331 10.9447 65.5427 11.9295 65.5427 13.843V43.7669C65.5427 45.3895 66.7512 46.0274 68.0829 46.0274C69.8735 46.0274 71.664 44.8076 71.664 43.129V33.6841ZM71.664 18.7781C73.2195 17.5024 75.0211 16.8645 76.3416 16.8645C79.117 16.8645 80.5046 20.1098 80.5046 23.5342C80.5046 26.8355 79.117 30.3156 76.2857 30.3156C74.954 30.3156 73.1076 29.5659 71.664 27.8762V18.7781ZM97.2123 37.5112C96.6974 39.313 95.8246 40.1187 94.146 40.1187C92.8703 40.1187 91.6056 39.5368 90.509 39.5368C89.0654 39.5368 88.3716 40.6334 88.3716 42.2002C88.3716 44.6957 91.035 46.0274 93.8661 46.0274C98.141 46.0274 101.028 44.2256 102.651 39.1227L110.63 13.843C111.268 11.8735 109.936 10.9447 108.257 10.9447C106.232 10.9447 104.844 11.7616 104.385 13.4402L99.2938 30.3716L93.3963 12.7464C92.9374 11.4706 91.6056 10.9447 90.162 10.9447C88.0807 10.9447 86.693 12.2204 87.4428 14.3131L93.6871 32.3412C94.4369 34.4898 95.5337 35.7656 97.671 35.8215L97.2123 37.5112Z" fill="#3A773B"/>
<path d="M17.5693 35.7782C10.6871 35.7782 7.39703 30.3842 7.39703 22.562C7.39703 14.5047 11.213 8.00291 17.6252 8.00291C24.5634 8.00291 28.4915 13.9787 28.4915 21.745C28.4915 29.8024 24.0376 35.7782 17.5693 35.7782ZM17.6252 0.863281C6.30033 0.863281 0 11.1811 0 22.5507C0 33.7414 5.66246 42.9066 17.5693 42.9066C28.8943 42.9066 35.8884 33.1707 35.8884 21.745C35.8884 10.5544 29.5321 0.863281 17.6252 0.863281Z" fill="#3A773B"/>
<path fill-rule="evenodd" clip-rule="evenodd" d="M17.5133 22.7264C17.4574 21.8536 15.9578 18.6082 15.029 17.9145C15.1969 18.7874 15.7227 18.6641 15.7227 21.2828C15.3199 21.0479 13.6973 20.7568 13.0594 20.7568C12.7124 20.7568 11.7277 20.8127 11.5039 21.0479C13.5854 21.0479 15.3759 21.9766 16.3606 23.5992C17.5133 25.5129 16.6516 27.0236 16.1928 29.3401L15.264 33.1114H20.5236L19.8298 29.6871C19.7179 29.1051 19.5948 28.4672 19.5387 27.8853C19.4268 26.9006 19.024 25.6807 19.6508 24.875C19.7627 24.7631 19.8857 24.6401 19.9976 24.5282C20.4005 24.2371 21.6762 23.0734 22.0791 23.0734C22.4259 23.0734 22.9408 23.6552 24.2165 23.3643C24.1606 23.0734 23.8136 22.4355 23.7017 22.2004C24.1047 22.2004 24.7424 22.0214 25.1453 21.9655C25.604 21.8536 26.13 21.7865 26.5889 21.6746C26.4211 21.5625 26.007 21.4954 25.7832 21.4954C24.3396 21.2605 22.9519 21.3835 21.5643 21.6746C20.5795 21.8536 19.8298 22.3123 19.8298 21.9095C19.8298 19.9399 20.1766 18.6082 21.0383 17.0975C21.1502 16.8625 21.3293 16.6947 21.3853 16.5156C19.9976 17.4444 18.6099 20.1637 17.9161 21.8536L17.6812 22.4915C17.6252 22.4915 17.6252 22.5474 17.6252 22.5474L17.5133 22.7264Z" fill="#3A773B"/>
<path fill-rule="evenodd" clip-rule="evenodd" d="M21.8991 21.0405C23.6896 21.0405 24.2715 18.668 22.4138 18.668C20.5562 18.668 20.1644 21.0405 21.8991 21.0405Z" fill="#3A773B"/>
<path fill-rule="evenodd" clip-rule="evenodd" d="M12.8789 27.1923C12.8789 27.4272 12.9349 28.1211 13.17 28.1211C13.7519 28.1211 14.3785 27.5951 14.6695 27.2483C14.9604 26.9012 15.2515 26.2634 15.2515 25.5695C15.2515 25.3346 15.2515 25.4576 15.1955 25.1668C14.7926 25.4576 14.2106 26.6215 13.8638 26.9013C13.696 26.6104 14.2106 25.8046 14.3785 25.3346C14.4904 25.1556 14.5465 24.9878 14.6136 24.8086C13.696 25.0437 12.8789 25.9725 12.8789 27.1923Z" fill="#3A773B"/>
<path fill-rule="evenodd" clip-rule="evenodd" d="M12.8789 12.2323C12.8789 13.452 13.6846 14.5487 14.5576 14.6047C14.5017 14.0787 13.696 12.9261 13.8638 12.5792C14.0987 12.7582 14.3225 13.217 14.5576 13.508C14.6695 13.687 14.7255 13.7989 14.8485 13.9668L15.1955 14.3697C15.5424 12.8589 14.3339 11.4713 13.0581 11.3594C13.0021 11.6503 12.8789 11.8853 12.8789 12.2323Z" fill="#3A773B"/>
<path fill-rule="evenodd" clip-rule="evenodd" d="M8.20215 19.7634C8.95193 20.8042 11.1453 21.0391 11.8391 20.0544L9.86956 19.8193C9.63456 19.7634 9.75765 19.8753 9.63456 19.6403C9.86956 19.5844 11.4251 19.4613 11.8279 19.4613C11.772 19.2262 11.716 19.2262 11.5929 19.1703C10.3955 18.3757 8.84002 18.8458 8.20215 19.7634Z" fill="#3A773B"/>
<path fill-rule="evenodd" clip-rule="evenodd" d="M22.0784 26.9013C21.9105 26.8453 21.9665 26.8453 21.8434 26.7223C21.6085 26.4871 20.8587 25.2675 20.6348 25.0997C20.6348 26.1403 20.6348 26.5544 21.1496 27.125C21.5526 27.707 22.0113 27.9421 22.7722 28.1099C22.9401 27.7629 22.8841 27.3601 22.8841 26.946C22.8841 26.3082 22.6492 25.9054 22.3694 25.5584C22.0784 25.1556 21.7316 24.9205 21.2167 24.8086C21.3845 25.2227 22.0113 26.3753 22.0784 26.9013Z" fill="#3A773B"/>
<path fill-rule="evenodd" clip-rule="evenodd" d="M20.623 14.3126C20.858 14.2567 21.205 13.6748 21.3169 13.4398L21.8317 12.7459C21.9996 12.511 21.7197 12.634 22.1226 12.5669C21.9548 12.9138 21.8877 13.2607 21.7197 13.6076C21.5518 13.8986 21.3169 14.3015 21.2609 14.5924C21.8988 14.5365 22.4135 13.9545 22.6486 13.4286C22.9954 12.7907 23.0514 11.9738 22.7605 11.3359C22.0667 11.3919 21.5518 11.8619 21.1379 12.2648C20.6901 12.8131 20.623 13.3279 20.623 14.3126Z" fill="#3A773B"/>
<path fill-rule="evenodd" clip-rule="evenodd" d="M24.0374 19.483C24.6193 19.483 25.7159 19.5951 26.1747 19.6622V19.8412C25.8278 19.8412 24.8431 20.0763 23.9814 20.0763C24.4402 20.714 26.6447 21.24 27.6856 19.6733C26.6447 19.0355 25.9509 18.3416 24.4513 19.0914C24.2164 19.1921 24.1604 19.1921 24.0374 19.483Z" fill="#3A773B"/>
<path fill-rule="evenodd" clip-rule="evenodd" d="M16.9863 18.1402C16.9863 19.8747 18.8887 19.7069 18.8887 18.1402C18.9 16.6406 16.9863 16.4056 16.9863 18.1402Z" fill="#3A773B"/>
<path fill-rule="evenodd" clip-rule="evenodd" d="M17.2227 13.7425C17.2227 14.2013 17.2227 14.6154 17.5137 15.0182C17.6256 15.1301 17.5697 15.2532 17.6816 15.0182C17.7375 14.9623 17.8494 13.8544 17.8494 13.6865H18.0172C18.0172 14.2125 18.1291 14.6154 18.1291 15.1413C18.9908 14.5594 18.644 12.8249 17.8382 12.5898C17.6816 12.7465 17.2227 13.3844 17.2227 13.7425Z" fill="#3A773B"/>
<path fill-rule="evenodd" clip-rule="evenodd" d="M11.6709 16.114C11.9059 17.0988 12.4766 17.7366 13.5733 17.7366C13.8084 17.7366 13.5733 17.7366 13.7411 17.6247C13.6292 17.5128 13.3383 17.3338 13.1593 17.1659C13.0474 17.1099 12.9913 17.054 12.8683 16.9868C12.6333 16.8078 12.7004 16.9309 12.5774 16.6399L14.021 17.2219C13.9091 16.763 13.5621 16.4049 13.1593 16.2371C12.6556 15.9349 12.3088 16.0021 11.6709 16.114Z" fill="#3A773B"/>
<path fill-rule="evenodd" clip-rule="evenodd" d="M21.8438 17.212C22.0116 17.1001 22.3026 16.977 22.5376 16.921C22.8285 16.8091 23.0524 16.6301 23.2874 16.686C23.0524 16.977 22.3026 17.3239 22.0787 17.7267C23.1755 17.7267 24.1042 17.1448 24.1602 16.1041C23.9924 16.1041 23.7015 15.9922 23.4664 15.9922C22.7054 16.0034 21.8997 16.5181 21.8438 17.212Z" fill="#3A773B"/>
<path fill-rule="evenodd" clip-rule="evenodd" d="M11.6709 23.3654C12.7116 23.6003 13.8084 23.3094 14.0433 22.2686C13.8084 22.3247 13.5285 22.5037 13.3495 22.5596C13.1145 22.6715 12.8348 22.7946 12.5997 22.8505C12.7116 22.3918 13.4614 22.2686 13.7524 21.7539C12.9467 21.7539 12.8235 21.8099 12.3648 22.1567C12.0738 22.3806 11.7828 22.9513 11.6709 23.3654Z" fill="#3A773B"/>
<path fill-rule="evenodd" clip-rule="evenodd" d="M13.3486 19.5944C13.3486 20.1204 13.6955 20.3441 14.0984 20.4674C14.4452 20.5793 15.0831 20.4674 15.0831 20.0644C15.0831 19.3706 14.6804 19.0237 13.9865 19.0237C13.6955 19.0126 13.3486 19.3035 13.3486 19.5944Z" fill="#3A773B"/>
<path fill-rule="evenodd" clip-rule="evenodd" d="M19.4725 16.8091C19.7075 16.6301 19.5285 16.5741 19.8194 16.4062V16.865C20.1104 16.7531 19.9874 16.865 20.0545 16.5181C20.1104 16.3391 20.1104 16.1712 20.0545 15.9922C19.8194 16.0481 19.8866 16.1041 19.6515 16.3391C19.4166 16.5181 19.3606 16.5181 19.4725 16.8091Z" fill="#3A773B"/>
<path fill-rule="evenodd" clip-rule="evenodd" d="M15.7129 16.0565C15.7129 16.3475 15.8248 16.5154 15.8248 16.8735C16.2837 16.7616 15.8248 16.8175 16.0599 16.3475C16.3508 16.5265 16.1718 16.5825 16.4067 16.8063C16.4627 16.6273 16.5746 16.6944 16.1718 16.2803C16.0039 16.0565 15.948 15.9334 15.7129 16.0565Z" fill="#3A773B"/>
<path d="M4.09596 59.3675C3.92811 59.3675 3.80501 59.3338 3.70429 59.2667C3.60357 59.1996 3.53643 59.0766 3.48047 58.8863L3.3238 58.3268C3.27905 58.1365 3.23427 57.991 3.17833 57.9015C3.12238 57.812 3.01047 57.7672 2.83141 57.7672H2.18237C2.07046 57.7672 1.96974 57.8008 1.9026 57.8568C1.83545 57.9127 1.77949 58.0023 1.74592 58.1142C1.71235 58.2261 1.68997 58.3043 1.67878 58.3268L1.52212 58.8863C1.46615 59.0766 1.38783 59.1996 1.2983 59.2667C1.19758 59.3338 1.07448 59.3675 0.917814 59.3675H0.705185C0.559708 59.3675 0.42542 59.3338 0.335907 59.2779C0.235187 59.2219 0.19043 59.0989 0.19043 58.9199C0.19043 58.8303 0.201619 58.7296 0.235187 58.6288L1.65641 52.6867C1.68997 52.5523 1.7683 52.4293 1.88021 52.3286C1.99212 52.2278 2.1264 52.1719 2.26069 52.1719H2.78665C2.93213 52.1719 3.06642 52.2278 3.17833 52.3286C3.29024 52.4293 3.36858 52.5523 3.40214 52.6867L4.83454 58.6513C4.85693 58.7407 4.86812 58.8192 4.86812 58.8974C4.86812 59.1996 4.68906 59.3563 4.33097 59.3563H4.09596V59.3675ZM2.73071 55.2158L2.58521 54.4772C2.57402 54.3987 2.55164 54.3541 2.50689 54.3541C2.4957 54.3541 2.47332 54.3653 2.46213 54.3876C2.45094 54.4101 2.42855 54.4324 2.42855 54.4547L2.27188 55.2158L2.13759 55.9542C2.11521 56.0438 2.10402 56.1334 2.10402 56.2341C2.10402 56.4579 2.21593 56.5698 2.42855 56.5698H2.59642C2.80903 56.5698 2.90975 56.4691 2.90975 56.2676C2.90975 56.2005 2.89856 56.0998 2.86499 55.9542L2.73071 55.2158Z" fill="#3A773B"/>
<path d="M6.18958 59.3767C6.0441 59.3767 5.921 59.3208 5.82028 59.22C5.71956 59.1193 5.6748 58.9962 5.6748 58.8619V52.3937C5.6748 52.2482 5.71956 52.1252 5.82028 52.0244C5.921 51.9237 6.0441 51.8789 6.18958 51.8789H6.50291C6.6372 51.8789 6.7603 51.9349 6.86102 52.0244C6.96172 52.1252 7.01768 52.2482 7.01768 52.3937V58.8619C7.01768 58.9962 6.96172 59.1193 6.86102 59.22C6.7603 59.3208 6.6372 59.3767 6.50291 59.3767H6.18958Z" fill="#3A773B"/>
<path d="M12.8463 59.3658C12.7119 59.3658 12.5777 59.321 12.4657 59.2314C12.3426 59.142 12.2755 59.0301 12.2419 58.9069L11.5705 56.21C11.5593 56.1541 11.5481 56.0981 11.5369 56.0645C11.5145 56.031 11.5033 56.0085 11.481 56.0085C11.4362 56.0085 11.4026 56.0756 11.369 56.21L10.7424 58.9069C10.7088 59.0413 10.6305 59.142 10.5074 59.2314C10.3843 59.321 10.2612 59.3658 10.1381 59.3658H9.7464C9.61212 59.3658 9.47783 59.321 9.36592 59.2314C9.25401 59.142 9.17568 59.0301 9.13091 58.9069L7.93351 54.3411C7.92232 54.2852 7.91113 54.2517 7.91113 54.2293C7.91113 54.1285 7.94472 54.0503 8.01185 53.9832C8.07901 53.9159 8.16852 53.8824 8.26924 53.8824H8.75044C8.86234 53.8824 8.97424 53.927 9.06378 54.0055C9.15331 54.0837 9.20925 54.1845 9.23163 54.3077L9.8695 57.318C9.90307 57.4633 9.93664 57.5306 9.97022 57.5306C10.015 57.5306 10.0485 57.4633 10.0709 57.3403L10.7871 54.3077C10.8207 54.1733 10.8878 54.0726 10.9774 53.9943C11.0781 53.9159 11.19 53.8824 11.3131 53.8824H11.6152C11.7495 53.8824 11.8614 53.927 11.9733 54.0055C12.0741 54.0837 12.1412 54.1958 12.1636 54.3188L12.9469 57.3291C12.9693 57.4633 13.0028 57.5193 13.0364 57.5193C13.0812 57.5193 13.1149 57.4522 13.1372 57.3066L13.7303 54.2964C13.7414 54.1733 13.7974 54.0726 13.8981 53.9943C13.9989 53.9159 14.0996 53.8711 14.2003 53.8711H14.659C14.7709 53.8711 14.8605 53.9047 14.9276 53.9718C14.9949 54.0391 15.0395 54.1174 15.0395 54.2181C15.0395 54.2404 15.0284 54.274 15.0172 54.33L13.831 58.8958C13.8085 59.0301 13.7303 59.1307 13.6072 59.2203C13.484 59.3099 13.3498 59.3547 13.2154 59.3547H12.8463V59.3658Z" fill="#3A773B"/>
<path d="M18.2303 59.165C18.219 59.1091 18.1966 59.0643 18.163 59.0418C18.1295 59.0195 18.0848 58.997 18.04 58.997C17.9952 58.997 17.9615 59.0195 17.9281 59.053C17.6259 59.3216 17.279 59.4559 16.8872 59.4559C16.4062 59.4559 16.048 59.2992 15.7906 58.997C15.5444 58.695 15.4102 58.3034 15.4102 57.8222C15.4102 57.3073 15.6116 56.8932 16.0256 56.5912C16.4397 56.289 17.0664 56.11 17.9169 56.0875C17.9617 56.0875 18.0063 56.0652 18.04 56.0204C18.0736 55.9756 18.0959 55.9197 18.0959 55.8637C18.0959 55.5615 18.04 55.3154 17.9281 55.1476C17.8162 54.9797 17.637 54.9013 17.3798 54.9013C17.2679 54.9013 17.1783 54.9238 17.0999 54.9572C17.0216 55.002 16.932 55.058 16.8313 55.1364C16.7194 55.237 16.5964 55.2818 16.4845 55.2818C16.3837 55.2818 16.3278 55.2595 16.2941 55.2035L16.104 54.9572C16.0256 54.8678 15.9921 54.7783 15.9921 54.6775C15.9921 54.5433 16.048 54.4312 16.1599 54.3194C16.3949 54.1181 16.6187 53.9837 16.8426 53.9166C17.0664 53.8495 17.3238 53.8047 17.6259 53.8047C18.1407 53.8047 18.566 53.9837 18.8905 54.3418C19.2262 54.6998 19.3828 55.2483 19.3828 55.9868V58.5495C19.3828 58.6838 19.4052 58.8405 19.4388 59.0084C19.4499 59.0978 19.4276 59.1762 19.3717 59.2544C19.3044 59.3215 19.2373 59.3663 19.1479 59.3663H18.4989C18.4427 59.3663 18.3981 59.344 18.3422 59.3104C18.2749 59.2769 18.2414 59.221 18.2303 59.165ZM18.1071 57.4976C18.1071 57.4528 18.1071 57.3744 18.1182 57.285C18.1182 57.1843 18.1071 57.117 18.0848 57.0611C18.0623 57.0051 17.9952 56.9828 17.9056 56.9828C17.8496 56.9828 17.7937 56.9828 17.7602 56.994C17.3909 57.0611 17.0999 57.1618 16.8986 57.2737C16.6971 57.3969 16.5964 57.5759 16.5964 57.8222C16.5964 58.0235 16.6523 58.1801 16.753 58.2809C16.8538 58.3928 16.988 58.4487 17.1447 58.4487C17.4469 58.4487 17.693 58.3705 17.861 58.2138C18.0288 58.0459 18.1071 57.8108 18.1071 57.4976Z" fill="#3A773B"/>
<path d="M20.6026 53.9492H20.9159C21.0278 53.9492 21.1397 53.9827 21.2293 54.0611C21.3187 54.1282 21.386 54.2289 21.4195 54.352L22.2029 57.0154C22.2252 57.0825 22.2588 57.1162 22.3148 57.1162C22.3371 57.1162 22.3596 57.1048 22.3819 57.0825C22.4044 57.0602 22.4267 57.0377 22.4267 57.0154L23.2547 54.352C23.2883 54.2401 23.3554 54.1394 23.4339 54.0611C23.5233 53.9827 23.624 53.9492 23.7247 53.9492H24.0045C24.15 53.9492 24.2731 53.9938 24.3626 54.0946C24.4634 54.1953 24.5082 54.3072 24.5082 54.4527C24.5082 54.531 24.4968 54.5871 24.4857 54.6206L23.0421 59.3655C22.8183 60.0705 22.5722 60.574 22.3036 60.8762C22.035 61.1783 21.6769 61.335 21.2516 61.335C20.983 61.335 20.7368 61.2902 20.5018 61.1896C20.4123 61.156 20.334 61.0889 20.2781 60.9993C20.211 60.8985 20.1885 60.809 20.1885 60.6971C20.1885 60.6077 20.211 60.5292 20.2556 60.4621L20.2781 60.4285C20.3452 60.3278 20.4347 60.2495 20.5242 60.1824C20.6249 60.1153 20.7145 60.0817 20.8041 60.0817C20.8375 60.0817 20.8935 60.0928 20.9607 60.1264C21.039 60.1712 21.0949 60.1936 21.1397 60.1936C21.4195 60.1936 21.6098 59.9698 21.7328 59.5334C21.744 59.4326 21.7551 59.3767 21.7551 59.3542C21.7551 59.3319 21.744 59.2871 21.7328 59.2311L20.0991 54.6317C20.0766 54.5758 20.0654 54.5198 20.0654 54.4639C20.0654 54.3297 20.1214 54.2065 20.2221 54.0946C20.334 54.0052 20.4571 53.9492 20.6026 53.9492Z" fill="#3A773B"/>
<path d="M28.4017 59.0426C28.0547 59.3223 27.5849 59.4565 26.9804 59.4565C26.7007 59.4565 26.421 59.4119 26.1524 59.3223C25.8838 59.2327 25.6712 59.132 25.5145 59.0201C25.4249 58.953 25.3578 58.8747 25.3019 58.774C25.2459 58.6732 25.2236 58.5837 25.2236 58.4829C25.2236 58.3487 25.2796 58.2257 25.3801 58.1249L25.4138 58.0913C25.4922 57.9906 25.5928 57.9458 25.7271 57.9458C25.8727 57.9458 26.0069 57.9906 26.1188 58.0913C26.2307 58.1809 26.365 58.2591 26.5329 58.3262C26.7007 58.3935 26.8574 58.427 27.0029 58.427C27.2938 58.427 27.5064 58.3822 27.6295 58.2816C27.7527 58.1809 27.8086 58.0242 27.8086 57.8116C27.8086 57.5653 27.6408 57.3752 27.305 57.2519L26.4992 56.9499C25.6935 56.6365 25.3019 56.1776 25.3019 55.5734C25.3019 55.0139 25.4697 54.5887 25.7942 54.2753C26.1188 53.9619 26.5329 53.8164 27.0477 53.8164C27.5287 53.8164 27.9317 53.9171 28.2451 54.1186C28.48 54.2641 28.603 54.432 28.603 54.611C28.603 54.7229 28.5584 54.8348 28.4577 54.9355C28.3122 55.1147 28.1555 55.2041 28.0213 55.2041C27.954 55.2041 27.8869 55.1818 27.831 55.137C27.5512 54.958 27.2938 54.8572 27.0252 54.8572C26.8351 54.8572 26.6784 54.9132 26.5665 55.0139C26.4544 55.1147 26.3985 55.2489 26.3985 55.3832C26.3985 55.5286 26.4321 55.6293 26.4881 55.7078C26.5552 55.7749 26.6671 55.842 26.8238 55.8979L27.652 56.2001C28.0324 56.3343 28.3345 56.5246 28.5696 56.7596C28.8045 56.9947 28.9164 57.3304 28.9164 57.7556C28.9277 58.3376 28.7486 58.7628 28.4017 59.0426Z" fill="#3A773B"/>
<path d="M32.666 59.3675C32.5207 59.3675 32.3975 59.3227 32.2967 59.2219C32.1962 59.1212 32.1514 58.9982 32.1514 58.8526V52.6867C32.1514 52.5523 32.2073 52.4293 32.3081 52.3286C32.4086 52.2278 32.5318 52.1719 32.666 52.1719H35.4637C35.6092 52.1719 35.7323 52.2278 35.833 52.3286C35.9337 52.4293 35.9897 52.5523 35.9897 52.6867V52.944C35.9897 53.0895 35.9337 53.2125 35.833 53.3133C35.7323 53.414 35.6092 53.4588 35.4637 53.4588H34.0201C33.8747 53.4588 33.7403 53.5036 33.6509 53.6043C33.5502 53.7049 33.5054 53.8281 33.5054 53.9735V54.466C33.5054 54.6114 33.5502 54.7346 33.6509 54.8353C33.7515 54.9359 33.8747 54.9807 34.0201 54.9807H35.0832C35.2176 54.9807 35.3406 55.0366 35.4414 55.1374C35.5421 55.2381 35.5869 55.3611 35.5869 55.4955V55.7641C35.5869 55.8983 35.5421 56.0215 35.4414 56.1223C35.3406 56.2228 35.2287 56.2676 35.0832 56.2676H34.0201C33.8747 56.2676 33.7515 56.3236 33.6509 56.4243C33.5502 56.525 33.5054 56.6481 33.5054 56.7936V58.8526C33.5054 58.9982 33.4495 59.1212 33.3487 59.2219C33.248 59.3227 33.1249 59.3675 32.9794 59.3675H32.666Z" fill="#3A773B"/>
<path d="M37.0536 59.3664C36.9417 59.3664 36.8523 59.3216 36.7739 59.2434C36.6956 59.1649 36.662 59.0755 36.662 58.9634V54.6551C36.662 54.6103 36.662 54.5544 36.6508 54.4873C36.6397 54.4202 36.6396 54.3531 36.6396 54.2746C36.6396 54.1627 36.6731 54.0731 36.7515 53.9949C36.8298 53.9166 36.9194 53.8718 37.0313 53.8718H37.3669C37.4565 53.8718 37.5348 53.8942 37.6021 53.9501C37.6692 54.006 37.714 54.0731 37.7474 54.1627C37.7586 54.2635 37.7811 54.3417 37.8034 54.4313C37.8145 54.4873 37.8482 54.5097 37.9041 54.5097C37.9377 54.5097 37.96 54.4984 37.9825 54.4649C38.1056 54.2858 38.2734 54.1179 38.486 53.9949C38.6987 53.8605 38.9449 53.7823 39.2358 53.76C39.3814 53.7486 39.5044 53.7823 39.6051 53.8605C39.7059 53.9389 39.7507 54.0508 39.7393 54.185L39.6722 54.7783C39.6611 54.8789 39.6163 54.9573 39.538 55.0244C39.4596 55.0915 39.37 55.1251 39.2695 55.1251L39.1239 55.114C38.9001 55.114 38.6875 55.1699 38.5083 55.2818C38.3294 55.3937 38.1838 55.5392 38.0719 55.7182C37.96 55.8972 37.9153 56.0764 37.9153 56.2777V58.9748C37.9153 59.0867 37.8706 59.1761 37.7922 59.2545C37.714 59.3328 37.6244 59.3776 37.5125 59.3776H37.0536V59.3664Z" fill="#3A773B"/>
<path d="M41.6638 57.0739C41.5853 57.0739 41.5182 57.1074 41.4623 57.1746C41.4064 57.2417 41.384 57.32 41.384 57.4319C41.384 57.4767 41.384 57.5103 41.3952 57.5326C41.44 57.79 41.5294 57.9915 41.6638 58.1146C41.8093 58.2489 42.0331 58.3272 42.3351 58.3497C42.4807 58.3608 42.615 58.3384 42.7156 58.2824C42.8163 58.2265 42.9282 58.1146 43.0403 57.9804C43.0849 57.9019 43.1745 57.8572 43.2864 57.8572C43.376 57.8572 43.4431 57.8796 43.4879 57.9244L43.846 58.2376C43.9243 58.3049 43.9691 58.3943 43.9691 58.495C43.9691 58.5735 43.9466 58.6294 43.8906 58.6854C43.6668 58.9651 43.4319 59.1554 43.1633 59.2896C42.8948 59.4127 42.5702 59.4799 42.1784 59.4799C41.4848 59.4799 40.9588 59.2337 40.6006 58.7413C40.2425 58.2489 40.0635 57.5663 40.0635 56.6821C40.0635 55.8093 40.2425 55.1154 40.6229 54.6008C40.9922 54.0859 41.5182 53.8398 42.1898 53.8398C42.9507 53.8398 43.4654 54.1084 43.7453 54.6567C44.025 55.205 44.1592 55.91 44.1592 56.7942C44.1592 56.8724 44.1257 56.9395 44.0698 56.9955C44.0025 57.0514 43.9354 57.0851 43.846 57.0851H41.6638V57.0739ZM42.7381 56.1897C42.8611 56.1897 42.9507 56.1674 42.9842 56.1115C43.029 56.0555 43.0514 55.9884 43.0514 55.8989C43.0514 55.5407 42.973 55.261 42.8163 55.0708C42.6596 54.8805 42.4695 54.7909 42.2232 54.7909C41.9547 54.7909 41.742 54.8805 41.5853 55.0708C41.4287 55.2498 41.3504 55.5184 41.3504 55.8652C41.3504 55.9771 41.3727 56.0555 41.4175 56.1115C41.4623 56.1674 41.5407 56.1897 41.6638 56.1897H42.7381Z" fill="#3A773B"/>
<path d="M48.0072 59.0426C47.6604 59.3223 47.1903 59.4565 46.5861 59.4565C46.3062 59.4565 46.0264 59.4119 45.7579 59.3223C45.4893 59.2327 45.2767 59.132 45.12 59.0201C45.0306 58.953 44.9633 58.8747 44.9074 58.774C44.8514 58.6732 44.8291 58.5837 44.8291 58.4829C44.8291 58.3487 44.885 58.2257 44.9858 58.1249L45.0192 58.0913C45.0977 57.9906 45.1984 57.9458 45.3326 57.9458C45.4781 57.9458 45.6123 57.9906 45.7242 58.0913C45.8363 58.1809 45.9705 58.2591 46.1383 58.3262C46.3062 58.3935 46.4629 58.427 46.6084 58.427C46.8993 58.427 47.1119 58.3822 47.2351 58.2816C47.3582 58.1809 47.4141 58.0242 47.4141 57.8116C47.4141 57.5653 47.2463 57.3752 46.9106 57.2519L46.116 56.9499C45.3103 56.6365 44.9185 56.1776 44.9185 55.5734C44.9185 55.0139 45.0865 54.5887 45.411 54.2753C45.7356 53.9619 46.1495 53.8164 46.6643 53.8164C47.1455 53.8164 47.5483 53.9171 47.8617 54.1186C48.0968 54.2641 48.2198 54.432 48.2198 54.611C48.2198 54.7229 48.1751 54.8348 48.0743 54.9355C47.929 55.1147 47.7723 55.2041 47.6379 55.2041C47.5708 55.2041 47.5037 55.1818 47.4478 55.137C47.1678 54.958 46.9106 54.8572 46.642 54.8572C46.4517 54.8572 46.295 54.9132 46.1831 55.0139C46.0712 55.1147 46.0153 55.2489 46.0153 55.3832C46.0153 55.5286 46.0489 55.6293 46.1049 55.7078C46.172 55.7749 46.2839 55.842 46.4406 55.8979L47.2686 56.2001C47.6491 56.3343 47.9513 56.5246 48.1862 56.7596C48.4213 56.9947 48.5332 57.3304 48.5332 57.7556C48.5332 58.3376 48.354 58.7628 48.0072 59.0426Z" fill="#3A773B"/>
<path d="M52.7418 59.4335C52.5851 59.4335 52.4507 59.3775 52.3388 59.2656C52.2269 59.1537 52.171 59.0194 52.171 58.8627V56.0091C52.171 55.7069 52.1039 55.4608 51.9807 55.2705C51.8576 55.0803 51.6561 54.9796 51.3876 54.9796C51.1303 54.9796 50.9288 55.0692 50.7833 55.2482C50.6378 55.4272 50.5707 55.6623 50.5707 55.9308V58.8627C50.5707 59.0194 50.5147 59.1537 50.4028 59.2656C50.2909 59.3775 50.1566 59.4335 49.9999 59.4335H49.888C49.7313 59.4335 49.5971 59.3775 49.4852 59.2656C49.3733 59.1537 49.3174 59.0194 49.3174 58.8627V52.5513C49.3174 52.3946 49.3733 52.2602 49.4852 52.1483C49.5971 52.0364 49.7313 51.9805 49.888 51.9805H49.9999C50.1566 51.9805 50.2909 52.0364 50.4028 52.1483C50.5147 52.2602 50.5707 52.3946 50.5707 52.5513V54.0395C50.5707 54.0843 50.593 54.1291 50.6266 54.1627C50.6603 54.1962 50.6937 54.2073 50.7385 54.2073C50.7722 54.2073 50.8056 54.1962 50.8393 54.1739C51.0967 53.9835 51.4212 53.8828 51.8017 53.8828C52.3611 53.8828 52.7641 54.0843 53.0215 54.4872C53.2789 54.89 53.4131 55.3937 53.4131 55.9979V58.8627C53.4131 59.0194 53.3572 59.1537 53.2453 59.2656C53.1334 59.3775 52.999 59.4335 52.8423 59.4335H52.7418Z" fill="#3A773B"/>
<path d="M54.4439 60.6422C54.4439 60.5749 54.4663 60.519 54.511 60.4744C54.5558 60.4296 54.6006 60.396 54.6566 60.3848C55.0594 60.3177 55.2608 60.0826 55.2943 59.6798L55.272 59.6687C55.2497 59.6798 55.2049 59.6798 55.1378 59.6798C54.9475 59.6798 54.7796 59.6125 54.6452 59.4672C54.511 59.3217 54.4326 59.1538 54.4326 58.9412C54.4326 58.7286 54.4999 58.5496 54.6452 58.404C54.7908 58.2585 54.9698 58.1914 55.1824 58.1914C55.4735 58.1914 55.6972 58.2921 55.8539 58.4823C55.9995 58.6726 56.0777 58.9412 56.0777 59.2769C56.0777 59.5231 56.0218 59.7581 55.921 59.9932C55.8203 60.2281 55.6524 60.4183 55.451 60.5863C55.2383 60.743 54.9923 60.8324 54.7012 60.8548C54.6341 60.866 54.5781 60.8435 54.5222 60.7989C54.4663 60.7541 54.4439 60.6982 54.4439 60.6422Z" fill="#3A773B"/>
<path d="M62.7137 59.0766L60.7218 55.294C60.6882 55.2269 60.6547 55.1933 60.6099 55.1933C60.5874 55.1933 60.5651 55.2045 60.554 55.2381C60.5315 55.2604 60.5315 55.3052 60.5315 55.35V58.8415C60.5315 58.987 60.4755 59.1212 60.3748 59.2219C60.2741 59.3227 60.151 59.3786 60.0057 59.3786H59.8936C59.7482 59.3786 59.6139 59.3227 59.5131 59.2219C59.4012 59.1212 59.3564 58.9982 59.3564 58.8415V52.7313C59.3564 52.5747 59.4124 52.4405 59.5131 52.3397C59.6139 52.239 59.7482 52.183 59.9049 52.183H60.207C60.3413 52.183 60.4644 52.2167 60.5763 52.2838C60.677 52.3509 60.7553 52.4293 60.8112 52.53L62.6241 56.1221C62.6912 56.2565 62.736 56.3124 62.7585 56.3124C62.792 56.3124 62.8145 56.2341 62.8145 56.0661V52.7202C62.8145 52.5635 62.8704 52.4293 62.9711 52.3286C63.0719 52.2278 63.2061 52.1719 63.3628 52.1719H63.5306C63.665 52.1719 63.7769 52.2278 63.8776 52.3286C63.9782 52.4293 64.023 52.5635 64.023 52.7202V58.8303C64.023 58.9758 63.967 59.0989 63.8776 59.1996C63.7769 59.3004 63.665 59.3563 63.5306 59.3563H63.2286C63.1501 59.3563 63.0494 59.3227 62.9487 59.2667C62.8145 59.2108 62.7474 59.1437 62.7137 59.0766Z" fill="#3A773B"/>
<path d="M66.6626 57.0739C66.5844 57.0739 66.5173 57.1074 66.4613 57.1746C66.4054 57.2417 66.3829 57.32 66.3829 57.4319C66.3829 57.4767 66.3829 57.5103 66.394 57.5326C66.4388 57.79 66.5284 57.9915 66.6626 58.1146C66.8082 58.2489 67.0319 58.3272 67.3341 58.3497C67.4797 58.3608 67.6139 58.3384 67.7146 58.2824C67.8154 58.2265 67.9272 58.1146 68.0391 57.9804C68.0839 57.9019 68.1733 57.8572 68.2854 57.8572C68.3748 57.8572 68.4419 57.8796 68.4867 57.9244L68.8449 58.2376C68.9231 58.3049 68.9679 58.3943 68.9679 58.495C68.9679 58.5735 68.9456 58.6294 68.8897 58.6854C68.6659 58.9651 68.4308 59.1554 68.1622 59.2896C67.8936 59.4127 67.5691 59.4799 67.1775 59.4799C66.4836 59.4799 65.9576 59.2337 65.5997 58.7413C65.2415 58.2489 65.0625 57.5663 65.0625 56.6821C65.0625 55.8093 65.2415 55.1154 65.622 54.6008C65.9913 54.0859 66.5173 53.8398 67.1886 53.8398C67.9496 53.8398 68.4644 54.1084 68.7441 54.6567C69.0239 55.205 69.1582 55.91 69.1582 56.7942C69.1582 56.8724 69.1246 56.9395 69.0686 56.9955C69.0015 57.0514 68.9344 57.0851 68.8449 57.0851H66.6626V57.0739ZM67.7369 56.1897C67.8601 56.1897 67.9496 56.1674 67.9832 56.1115C68.028 56.0555 68.0503 55.9884 68.0503 55.8989C68.0503 55.5407 67.972 55.261 67.8154 55.0708C67.6587 54.8805 67.4684 54.7909 67.2223 54.7909C66.9537 54.7909 66.7411 54.8805 66.5844 55.0708C66.4277 55.2498 66.3494 55.5184 66.3494 55.8652C66.3494 55.9771 66.3717 56.0555 66.4165 56.1115C66.4613 56.1674 66.5396 56.1897 66.6626 56.1897H67.7369Z" fill="#3A773B"/>
<path d="M71.441 59.3665C71.3179 59.3665 71.1947 59.3219 71.0828 59.2323C70.9709 59.1427 70.8927 59.0308 70.859 58.9078L69.5721 54.4202C69.561 54.3643 69.5498 54.3195 69.5498 54.2972C69.5498 54.1964 69.5833 54.1182 69.6505 54.0622C69.7176 53.995 69.807 53.9727 69.9191 53.9727H70.2996C70.4338 53.9727 70.5568 54.0174 70.6689 54.1069C70.7808 54.1964 70.859 54.3083 70.8927 54.4427L71.5306 57.2851C71.5529 57.4193 71.5977 57.4753 71.6313 57.4753C71.6759 57.4753 71.7207 57.4082 71.7432 57.2851L72.3922 54.4427C72.4146 54.3083 72.493 54.1964 72.6049 54.1069C72.7168 54.0174 72.8398 53.9727 72.974 53.9727H73.3547C73.4552 53.9727 73.5448 54.0061 73.6007 54.0622C73.6678 54.1182 73.7015 54.2076 73.7015 54.2972C73.7015 54.3195 73.6903 54.3643 73.6792 54.4202L72.4369 58.9078C72.4034 59.0308 72.325 59.1427 72.2131 59.2323C72.1012 59.3219 71.9781 59.3665 71.8438 59.3665H71.441Z" fill="#3A773B"/>
<path d="M75.9507 57.0739C75.8725 57.0739 75.8054 57.1074 75.7494 57.1746C75.6935 57.2417 75.671 57.32 75.671 57.4319C75.671 57.4767 75.671 57.5103 75.6821 57.5326C75.7269 57.79 75.8165 57.9915 75.9507 58.1146C76.0962 58.2489 76.32 58.3272 76.6222 58.3497C76.7678 58.3608 76.902 58.3384 77.0027 58.2824C77.1034 58.2265 77.2153 58.1146 77.3272 57.9804C77.372 57.9019 77.4614 57.8572 77.5735 57.8572C77.6629 57.8572 77.73 57.8796 77.7748 57.9244L78.133 58.2376C78.2112 58.3049 78.256 58.3943 78.256 58.495C78.256 58.5735 78.2337 58.6294 78.1777 58.6854C77.954 58.9651 77.7189 59.1554 77.4503 59.2896C77.1817 59.4127 76.8572 59.4799 76.4656 59.4799C75.7717 59.4799 75.2457 59.2337 74.8877 58.7413C74.5296 58.2489 74.3506 57.5663 74.3506 56.6821C74.3506 55.8093 74.5296 55.1154 74.9101 54.6008C75.2794 54.0859 75.8054 53.8398 76.4767 53.8398C77.2376 53.8398 77.7525 54.1084 78.0322 54.6567C78.3119 55.205 78.4463 55.91 78.4463 56.7942C78.4463 56.8724 78.4127 56.9395 78.3567 56.9955C78.2896 57.0514 78.2225 57.0851 78.133 57.0851H75.9507V57.0739ZM77.025 56.1897C77.1482 56.1897 77.2376 56.1674 77.2713 56.1115C77.3161 56.0555 77.3384 55.9884 77.3384 55.8989C77.3384 55.5407 77.2601 55.261 77.1034 55.0708C76.9468 54.8805 76.7564 54.7909 76.5103 54.7909C76.2418 54.7909 76.0291 54.8805 75.8725 55.0708C75.7158 55.2498 75.6373 55.5184 75.6373 55.8652C75.6373 55.9771 75.6598 56.0555 75.7046 56.1115C75.7494 56.1674 75.8277 56.1897 75.9507 56.1897H77.025Z" fill="#3A773B"/>
<path d="M79.5664 59.3664C79.4546 59.3664 79.365 59.3216 79.2867 59.2434C79.2083 59.1649 79.1748 59.0755 79.1748 58.9634V54.6551C79.1748 54.6103 79.1748 54.5544 79.1637 54.4873C79.1523 54.4202 79.1523 54.3531 79.1523 54.2746C79.1523 54.1627 79.186 54.0731 79.2644 53.9949C79.3427 53.9166 79.4322 53.8718 79.5441 53.8718H79.8798C79.9694 53.8718 80.0477 53.8942 80.1148 53.9501C80.182 54.006 80.2266 54.0731 80.2603 54.1627C80.2714 54.2635 80.2939 54.3417 80.3162 54.4313C80.3274 54.4873 80.361 54.5097 80.417 54.5097C80.4506 54.5097 80.4729 54.4984 80.4952 54.4649C80.6184 54.2858 80.7863 54.1179 80.9989 53.9949C81.2115 53.8605 81.4576 53.7823 81.7487 53.76C81.894 53.7486 82.0173 53.7823 82.118 53.8605C82.2187 53.9389 82.2634 54.0508 82.2522 54.185L82.1851 54.7783C82.1739 54.8789 82.1292 54.9573 82.0507 55.0244C81.9725 55.0915 81.8829 55.1251 81.7822 55.1251L81.6368 55.114C81.4128 55.114 81.2004 55.1699 81.0212 55.2818C80.8422 55.3937 80.6967 55.5392 80.5848 55.7182C80.4729 55.8972 80.4281 56.0764 80.4281 56.2777V58.9748C80.4281 59.0867 80.3833 59.1761 80.3051 59.2545C80.2266 59.3328 80.1372 59.3776 80.0253 59.3776H79.5664V59.3664Z" fill="#3A773B"/>
<path d="M87.9924 52.4191C88.3058 52.5758 88.5632 52.7996 88.7647 53.1018C88.8206 53.18 88.843 53.2808 88.843 53.3927C88.843 53.4934 88.8206 53.5941 88.7647 53.6837C88.7088 53.7733 88.6303 53.8404 88.5296 53.8852L88.3617 53.9523C88.2722 53.9971 88.1828 54.0082 88.082 54.0082C87.9924 53.9971 87.9142 53.9746 87.8357 53.9411C87.7686 53.8963 87.6791 53.8404 87.5897 53.7508C87.4664 53.6389 87.3434 53.5607 87.2315 53.5046C87.1196 53.4486 86.9741 53.4263 86.7839 53.4263C86.5825 53.4263 86.4258 53.4822 86.2914 53.5941C86.1684 53.706 86.1012 53.8516 86.1012 54.0419C86.1012 54.2543 86.1908 54.4335 86.381 54.5677C86.5713 54.7132 86.8622 54.8699 87.2651 55.0601C87.6679 55.2615 88.0036 55.4407 88.261 55.6085C88.5184 55.7764 88.7422 56.0002 88.9212 56.2799C89.1115 56.5596 89.2011 56.9066 89.2011 57.3207C89.2011 57.7347 89.1004 58.0928 88.8989 58.395C88.6974 58.7082 88.4177 58.9433 88.0484 59.1112C87.6904 59.279 87.2763 59.3574 86.8062 59.3574C85.9109 59.3574 85.2284 59.1 84.7695 58.574C84.6913 58.4733 84.6465 58.3614 84.6465 58.2495C84.6465 58.1488 84.6688 58.0592 84.7361 57.9698C84.792 57.8802 84.8703 57.8131 84.971 57.7683L85.1388 57.6787C85.2171 57.6339 85.3178 57.6116 85.4411 57.6116C85.5193 57.6116 85.5977 57.6228 85.6537 57.6564C85.7096 57.6787 85.7879 57.7347 85.8886 57.8131C86.1349 58.0144 86.4258 58.1265 86.7726 58.1265C87.0748 58.1265 87.3211 58.0592 87.5001 57.925C87.6791 57.7906 87.7798 57.6005 87.7798 57.343C87.7798 57.1193 87.6791 56.9401 87.4889 56.7836C87.2986 56.6269 86.9852 56.4477 86.5601 56.2239C86.1572 56.0225 85.8438 55.8323 85.5977 55.6645C85.3515 55.4966 85.1388 55.284 84.9598 55.0154C84.7807 54.7469 84.6913 54.4447 84.6913 54.0865C84.6913 53.7285 84.7807 53.404 84.9598 53.1241C85.1388 52.8332 85.3851 52.6094 85.7096 52.4416C86.023 52.2737 86.381 52.1953 86.7839 52.1953C87.2763 52.1953 87.6791 52.2624 87.9924 52.4191Z" fill="#3A773B"/>
<path d="M89.7937 52.5159C89.8496 52.46 89.9169 52.4375 89.9951 52.4375H90.6778C90.7561 52.4375 90.8233 52.46 90.8793 52.5159C90.9352 52.5719 90.9576 52.6278 90.9576 52.6949V53.7021C90.9576 53.7804 90.98 53.8477 91.036 53.9036C91.0919 53.9595 91.159 53.993 91.2261 53.993H91.6962C91.7744 53.993 91.8417 54.0155 91.8977 54.0714C91.9536 54.1274 91.9759 54.1833 91.9759 54.2616V54.7541C91.9759 54.8324 91.9536 54.8995 91.8977 54.9554C91.8417 55.0114 91.7744 55.045 91.6962 55.045H91.2261C91.1479 55.045 91.0919 55.0673 91.036 55.1233C90.98 55.1792 90.9576 55.2465 90.9576 55.3136V57.686C90.9576 57.8763 91.0135 58.0216 91.1142 58.1337C91.215 58.2456 91.3605 58.3015 91.5172 58.3015C91.5618 58.3015 91.6066 58.3015 91.6402 58.2902C91.7185 58.2791 91.7858 58.3015 91.8417 58.3462C91.8976 58.3909 91.9311 58.4469 91.9536 58.5253L92.043 59.0848C92.0543 59.1632 92.043 59.2303 91.9984 59.2974C91.9536 59.3645 91.8863 59.3982 91.8081 59.4093C91.5843 59.4318 91.4053 59.4541 91.2709 59.4541C90.7115 59.4541 90.3197 59.3199 90.0847 59.04C89.8496 58.7603 89.7266 58.3462 89.7266 57.7979V52.6949C89.7266 52.6278 89.749 52.5719 89.7937 52.5159Z" fill="#3A773B"/>
<path d="M92.5469 56.6254C92.5469 55.7524 92.737 55.0587 93.1063 54.5662C93.4756 54.0738 94.024 53.8164 94.7403 53.8164C95.4676 53.8164 96.0159 54.0627 96.3852 54.5662C96.7545 55.0587 96.9448 55.7524 96.9448 56.6254C96.9448 57.5205 96.7656 58.2144 96.3852 58.718C96.0159 59.2216 95.4676 59.4678 94.7403 59.4678C94.024 59.4678 93.4756 59.2216 93.1063 58.718C92.737 58.2144 92.5469 57.5205 92.5469 56.6254ZM95.7138 56.6254C95.7138 56.1553 95.6354 55.7524 95.4787 55.4279C95.3222 55.1033 95.0759 54.9355 94.7403 54.9355C94.4157 54.9355 94.1695 55.1033 94.0128 55.4279C93.8561 55.7524 93.7779 56.1553 93.7779 56.6254C93.7779 57.0953 93.8561 57.4982 94.0128 57.8339C94.1695 58.1697 94.4044 58.3376 94.7403 58.3376C95.0871 58.3376 95.3334 58.1809 95.4787 57.8564C95.6354 57.5318 95.7138 57.1289 95.7138 56.6254Z" fill="#3A773B"/>
<path d="M98.1202 59.3664C98.0083 59.3664 97.9187 59.3216 97.8404 59.2434C97.762 59.1649 97.7285 59.0755 97.7285 58.9634V54.6551C97.7285 54.6103 97.7285 54.5544 97.7174 54.4873C97.7061 54.4202 97.7061 54.3531 97.7061 54.2746C97.7061 54.1627 97.7397 54.0731 97.8179 53.9949C97.8964 53.9166 97.986 53.8718 98.0979 53.8718H98.4335C98.5231 53.8718 98.6014 53.8942 98.6685 53.9501C98.7357 54.006 98.7804 54.0731 98.814 54.1627C98.8251 54.2635 98.8476 54.3417 98.8699 54.4313C98.8811 54.4873 98.9147 54.5097 98.9707 54.5097C99.0043 54.5097 99.0266 54.4984 99.0489 54.4649C99.1722 54.2858 99.34 54.1179 99.5526 53.9949C99.7652 53.8605 100.011 53.7823 100.302 53.76C100.448 53.7486 100.571 53.7823 100.672 53.8605C100.772 53.9389 100.817 54.0508 100.806 54.185L100.739 54.7783C100.728 54.8789 100.683 54.9573 100.604 55.0244C100.526 55.0915 100.437 55.1251 100.336 55.1251L100.191 55.114C99.9667 55.114 99.7541 55.1699 99.5749 55.2818C99.3959 55.3937 99.2504 55.5392 99.1385 55.7182C99.0266 55.8972 98.9818 56.0764 98.9818 56.2777V58.9748C98.9818 59.0867 98.937 59.1761 98.8588 59.2545C98.7804 59.3328 98.6909 59.3776 98.5791 59.3776H98.1202V59.3664Z" fill="#3A773B"/>
<path d="M102.731 57.0739C102.653 57.0739 102.586 57.1074 102.53 57.1746C102.474 57.2417 102.451 57.32 102.451 57.4319C102.451 57.4767 102.451 57.5103 102.463 57.5326C102.507 57.79 102.597 57.9915 102.731 58.1146C102.877 58.2489 103.1 58.3272 103.403 58.3497C103.548 58.3608 103.682 58.3384 103.783 58.2824C103.884 58.2265 103.996 58.1146 104.107 57.9804C104.152 57.9019 104.242 57.8572 104.354 57.8572C104.443 57.8572 104.51 57.8796 104.555 57.9244L104.913 58.2376C104.992 58.3049 105.036 58.3943 105.036 58.495C105.036 58.5735 105.014 58.6294 104.958 58.6854C104.734 58.9651 104.499 59.1554 104.231 59.2896C103.962 59.4127 103.638 59.4799 103.246 59.4799C102.552 59.4799 102.026 59.2337 101.668 58.7413C101.31 58.2489 101.131 57.5663 101.131 56.6821C101.131 55.8093 101.31 55.1154 101.69 54.6008C102.06 54.0859 102.586 53.8398 103.257 53.8398C104.018 53.8398 104.533 54.1084 104.812 54.6567C105.092 55.205 105.227 55.91 105.227 56.7942C105.227 56.8724 105.193 56.9395 105.137 56.9955C105.07 57.0514 105.003 57.0851 104.913 57.0851H102.731V57.0739ZM103.817 56.1897C103.94 56.1897 104.029 56.1674 104.063 56.1115C104.107 56.0555 104.13 55.9884 104.13 55.8989C104.13 55.5407 104.052 55.261 103.895 55.0708C103.738 54.8805 103.548 54.7909 103.302 54.7909C103.033 54.7909 102.821 54.8805 102.664 55.0708C102.507 55.2498 102.429 55.5184 102.429 55.8652C102.429 55.9771 102.451 56.0555 102.496 56.1115C102.541 56.1674 102.619 56.1897 102.742 56.1897H103.817Z" fill="#3A773B"/>
<path d="M109.714 59.355C109.591 59.355 109.479 59.2991 109.378 59.1984C109.277 59.0978 109.221 58.9857 109.221 58.8627H109.109C108.818 59.2768 108.404 59.4783 107.867 59.4783C107.476 59.4783 107.14 59.3551 106.849 59.109C106.558 58.8627 106.334 58.527 106.178 58.0906C106.021 57.6542 105.942 57.173 105.942 56.647C105.942 56.0762 106.032 55.5838 106.2 55.1586C106.379 54.7333 106.625 54.3976 106.95 54.1627C107.274 53.9276 107.666 53.8157 108.113 53.8157C108.304 53.8157 108.483 53.8493 108.639 53.9164C108.796 53.9835 108.908 54.0731 108.964 54.1962V52.596C108.964 52.428 109.031 52.2827 109.165 52.1595C109.3 52.0364 109.445 51.9805 109.579 51.9805H109.702C109.882 51.9805 110.038 52.0364 110.15 52.1483C110.262 52.2602 110.318 52.4057 110.318 52.596V58.7508C110.318 58.9298 110.262 59.0753 110.15 59.1984C110.049 59.2991 109.893 59.355 109.714 59.355ZM108.975 55.7853C108.975 55.5838 108.908 55.3824 108.774 55.2034C108.639 55.0131 108.46 54.9236 108.248 54.9236C107.912 54.9236 107.666 55.0915 107.498 55.416C107.341 55.7517 107.252 56.1546 107.252 56.647C107.252 57.117 107.33 57.5087 107.487 57.7995C107.643 58.0906 107.89 58.2361 108.237 58.2361C108.516 58.2361 108.707 58.1577 108.807 58.0122C108.908 57.8668 108.964 57.6542 108.964 57.3856V55.7853H108.975Z" fill="#3A773B"/>
</svg>
