<svg xmlns="http://www.w3.org/2000/svg" version="1.0" width="512.000000pt" height="512.000000pt" viewBox="0 0 512.000000 512.000000" preserveAspectRatio="xMidYMid meet">

<g transform="translate(0.000000,512.000000) scale(0.100000,-0.100000)" fill="white" stroke="white">
<path d="M857 4726 c-69 -25 -97 -66 -97 -141 0 -43 45 -127 546 -1032 l545 -985 -19 -22 c-11 -11 -259 -457 -552 -991 -503 -915 -533 -973 -534 -1022 -1 -56 17 -89 68 -127 27 -20 40 -21 544 -24 284 -2 536 0 560 3 85 12 88 17 327 564 121 275 223 497 226 493 4 -4 130 -227 279 -497 149 -269 283 -502 298 -518 14 -15 42 -32 61 -37 52 -14 1104 -13 1156 1 89 25 134 118 97 201 -10 24 -281 499 -601 1057 l-583 1013 31 27 c20 17 217 350 553 936 502 875 522 912 523 962 0 56 -18 89 -69 127 -27 20 -40 21 -534 24 -279 2 -526 0 -550 -3 -83 -12 -88 -22 -332 -544 -123 -264 -225 -479 -226 -478 -1 1 -124 216 -274 477 -149 261 -284 487 -298 503 -14 15 -42 32 -61 37 -59 16 -1037 12 -1084 -4z m2199 -2153 c638 -1109 1160 -2022 1162 -2030 3 -11 -93 -13 -531 -13 l-535 0 -1121 2024 c-616 1113 -1121 2026 -1121 2030 0 3 222 6 494 6 l494 0 1158 -2017z m1074 2007 c0 -11 -987 -1738 -1004 -1757 -9 -10 -63 78 -229 371 l-217 384 221 473 c122 261 228 489 235 507 l14 32 490 0 c321 0 490 -3 490 -10z m-1961 -2532 c122 -207 221 -381 221 -386 0 -8 -419 -972 -481 -1105 l-12 -27 -499 0 c-428 0 -499 2 -496 14 7 31 1033 1894 1040 1888 4 -4 106 -177 227 -384z"/>
</g>
</svg>