<?xml version="1.0" standalone="no"?>
<!DOCTYPE svg PUBLIC "-//W3C//DTD SVG 20010904//EN"
 "http://www.w3.org/TR/2001/REC-SVG-20010904/DTD/svg10.dtd">
<svg version="1.0" xmlns="http://www.w3.org/2000/svg"
 width="1170.000000pt" height="410.000000pt" viewBox="0 0 1170.000000 410.000000"
 preserveAspectRatio="xMidYMid meet">

<g transform="translate(0.000000,410.000000) scale(0.100000,-0.100000)"
fill="#fff" stroke="none">
<path d="M0 2050 l0 -2050 5850 0 5850 0 0 2050 0 2050 -5850 0 -5850 0 0
-2050z m3180 481 l0 -901 -275 0 -275 0 0 -275 0 -275 -877 2 c-483 0 -858 4
-833 8 l45 7 -47 1 c-27 1 -48 -2 -48 -8 0 -5 -7 -10 -15 -10 -9 0 -15 9 -14
23 0 12 -3 415 -6 894 l-6 873 278 2 278 3 3 272 2 273 528 2 c290 2 692 4
895 6 l367 4 0 -901z m1513 368 l-1 -97 -287 -458 -286 -459 290 -3 290 -2 3
-115 c2 -64 2 -120 0 -125 -2 -6 -170 -10 -458 -10 l-454 0 0 98 1 97 287 460
288 460 -283 3 -283 2 0 125 0 125 448 -2 447 -3 -2 -96z m792 -285 c210 -60
353 -270 343 -504 l-3 -75 -376 -5 -377 -5 21 -45 c30 -63 94 -124 152 -143
103 -36 233 -14 316 53 21 16 41 30 46 30 15 -1 167 -96 170 -106 5 -14 -62
-83 -117 -120 -79 -55 -153 -76 -275 -82 -173 -7 -296 34 -405 135 -100 92
-150 217 -150 373 0 145 42 259 128 353 133 143 333 196 527 141z m1076 12
c89 -19 156 -55 206 -109 94 -102 103 -147 103 -560 l0 -328 -122 3 -123 3 -3
324 c-3 356 -5 370 -63 413 -112 84 -255 53 -310 -67 -17 -36 -19 -70 -19
-357 l0 -318 -125 0 -125 0 0 490 0 490 125 0 125 0 0 -36 0 -35 28 19 c66 47
149 78 217 81 11 0 50 -6 86 -13z m2297 -22 c71 -27 131 -69 152 -108 l14 -27
50 50 c127 124 289 149 452 70 108 -51 176 -153 195 -287 5 -37 8 -202 7 -367
l-3 -300 -122 -3 -122 -3 -3 339 c-3 380 -1 367 -80 419 -35 24 -52 28 -108
28 -102 0 -164 -44 -190 -136 -6 -19 -10 -172 -10 -341 l0 -308 -119 0 -120 0
-3 328 c-3 323 -3 328 -27 368 -28 50 -82 83 -149 91 -97 11 -181 -41 -207
-130 -12 -40 -15 -112 -15 -354 l0 -303 -120 0 -120 0 0 490 0 490 120 0 120
0 0 -30 c0 -16 2 -30 5 -30 2 0 33 16 69 35 35 20 84 40 107 45 62 12 153 2
227 -26z m1675 5 c137 -46 241 -147 297 -288 26 -67 43 -183 35 -243 l-7 -48
-374 0 c-206 0 -374 -2 -374 -5 0 -3 7 -21 14 -40 24 -57 63 -100 118 -131 48
-26 62 -29 148 -29 83 0 101 3 145 27 28 14 60 37 73 51 l23 25 89 -52 c49
-28 89 -57 90 -64 0 -24 -103 -117 -161 -146 -84 -41 -153 -56 -258 -56 -244
0 -426 118 -503 328 -18 46 -21 80 -22 182 0 113 3 132 27 194 100 254 378
382 640 295z m-2782 -13 c178 -73 305 -250 317 -441 5 -100 -9 -172 -52 -261
-62 -127 -175 -225 -308 -265 -56 -17 -88 -21 -176 -17 -98 3 -113 6 -182 39
-99 48 -168 104 -218 178 -136 204 -113 473 54 644 65 66 123 103 214 135 56
20 80 22 175 19 91 -3 122 -9 176 -31z"/>
<path d="M1620 3030 l0 -160 350 0 350 0 0 -78 0 -77 -127 -203 c-71 -111
-161 -255 -202 -319 -41 -65 -90 -143 -109 -173 -19 -30 -48 -74 -64 -97 -16
-24 -26 -47 -23 -53 4 -6 206 -10 575 -10 l569 0 3 33 c2 17 2 317 0 665 l-2
632 -660 0 -660 0 0 -160z"/>
<path d="M1067 2623 c-3 -5 -4 -303 -3 -663 1 -517 4 -655 14 -654 6 1 304 2
661 3 609 1 649 2 652 19 2 9 3 81 1 159 l-3 143 -472 2 -472 3 -3 77 c-3 76
-2 79 36 135 21 32 114 180 207 328 93 149 191 306 220 350 28 44 55 86 59 93
6 9 -86 12 -443 12 -247 0 -452 -3 -454 -7z"/>
<path d="M852 2470 c0 -19 3 -57 8 -85 6 -40 7 -43 8 -15 0 19 -3 58 -8 85 -6
40 -7 43 -8 15z"/>
<path d="M858 2158 c-6 -103 8 -367 19 -378 3 -3 2 33 -3 80 -4 47 -7 156 -6
243 1 86 0 157 -2 157 -2 0 -6 -46 -8 -102z"/>
<path d="M858 1385 c3 -88 6 -162 8 -164 7 -8 2 223 -5 274 -4 28 -5 -22 -3
-110z"/>
<path d="M860 1173 c-3 -23 -2 -39 3 -34 5 5 7 24 5 42 -3 33 -4 33 -8 -8z"/>
<path d="M5241 2409 c-94 -29 -193 -135 -166 -178 7 -13 495 -14 515 -1 32 20
-43 125 -114 162 -47 25 -179 34 -235 17z"/>
<path d="M10257 2400 c-27 -10 -63 -30 -82 -44 -34 -26 -81 -108 -71 -125 8
-13 513 -14 521 -1 11 18 -15 78 -48 111 -77 76 -212 101 -320 59z"/>
<path d="M7467 2376 c-150 -56 -223 -231 -154 -371 100 -205 382 -205 482 0
62 127 14 278 -112 352 -54 32 -157 41 -216 19z"/>
</g>
</svg>
